<?xml version="1.0" encoding="UTF-8"?>
<svg version="1.1" viewBox="0 0 580.5 165.5" xmlns="http://www.w3.org/2000/svg" xmlns:cc="http://creativecommons.org/ns#" xmlns:dc="http://purl.org/dc/elements/1.1/" xmlns:rdf="http://www.w3.org/1999/02/22-rdf-syntax-ns#">
 <metadata>
  <rdf:RDF>
   <cc:Work rdf:about="">
    <dc:format>image/svg+xml</dc:format>
    <dc:type rdf:resource="http://purl.org/dc/dcmitype/StillImage"/>
    <dc:title/>
   </cc:Work>
  </rdf:RDF>
 </metadata>
 <title>Hololive Indonesia logo</title>
 <desc>Indonesian branch of Hololive Production</desc>
 <g transform="translate(744.2,604.5)">
  <g transform="matrix(.9878 0 0 1 -7.719 0)">
   <path d="m-588.1-449.9c-0.1076-0.213-0.0278-2.826 0.1775-5.808 0.479-6.958 0.4802-23.47 2e-3 -30.46-0.2249-3.285-0.1694-5.684 0.1408-6.089 0.3382-0.4417 1.496-0.6169 3.41-0.5162l2.898 0.1523 0.1258 43.11-3.28-3e-5c-1.804-3e-5 -3.368-0.1743-3.475-0.3872zm26.36-16.52-7e-5 -16.91 6.357-0.0721v33.88l-3.178 1e-5h-3.178zm29.42 15.91c-0.3016-0.5492-0.5484-1.61-0.5484-2.357 0-2.566 0.8555-3.355 3.637-3.355 2.145 0 2.647 0.1943 3.227 1.249 0.8444 1.537 0.3321 4.719-0.8297 5.154-1.881 0.7034-4.931 0.3195-5.486-0.6906zm25.82 0.3532c-0.128-0.3549-0.0514-2.504 0.1705-4.775 0.5216-5.342 0.5216-27.18 0-32.52-0.2218-2.271-0.2985-4.42-0.1705-4.775 0.3497-0.9694 5.136-0.7996 11.09 0.3934 2.852 0.5713 9.688 1.843 15.19 2.825 5.504 0.9825 10.11 1.883 10.23 2.001s4e-3 3.725-0.2622 8.016c-0.2906 4.698-0.2902 10.91 8.1e-4 15.62 0.266 4.299 0.2912 7.996 0.056 8.214-0.2352 0.2183-6.87 1.579-14.74 3.024-14.37 2.637-21.1 3.255-21.56 1.981zm20.78-7.163c4.807-0.8644 8.86-1.687 9.006-1.829 0.4132-0.4012 0.311-23.27-0.1059-23.68-0.2039-0.1987-2.707-0.7828-5.562-1.298s-7.81-1.409-11.01-1.987c-3.941-0.7116-5.992-0.8813-6.357-0.526-0.6154 0.5997-0.7477 30.31-0.1392 31.25 0.264 0.4078 1.127 0.4399 2.902 0.1081 1.389-0.2598 6.46-1.18 11.27-2.044zm35.27-13.87c0.0452-20.74 0.0793-21.42 1.059-21.42 0.557 3e-3 5.184 0.1996 10.28 0.4357 6.09 0.2821 11.79 0.2303 16.61-0.1509 4.628-0.3657 7.566-0.3997 7.947-0.0919 0.4232 0.3423 0.4929 1.929 0.2331 5.307-0.2039 2.65-0.2865 12.14-0.1836 21.09l0.1871 16.27-36.19-0.016zm27.43 15.16 2.466-0.3294-0.2808-29.54-5.297-0.3864c-2.914-0.2125-8.088-0.2455-11.5-0.0734l-6.201 0.313-0.3268 2.138c-0.4593 3.006-0.0775 26.78 0.4427 27.56 0.4669 0.703 16.02 0.9405 20.7 0.3159zm28.15 2.007c0.3335-3.774 0.3606-15.7 0.0607-26.69l-0.0698-2.557 6.421-0.0888-0.0462 33.85h-6.765zm30.03 3.898c-0.8234-0.8024-0.8234-4.67 0-5.472 0.3496-0.3407 1.613-0.6195 2.808-0.6195s2.458 0.2788 2.808 0.6195c0.8234 0.8024 0.8234 4.67 0 5.472-0.8234 0.8024-4.792 0.8024-5.615 0zm25.66-7.124c0.2408-4.117 0.3393-12.02 0.2191-17.55-0.1203-5.537-0.2359-11.81-0.2569-13.94l-0.0382-3.872 4.768 0.2489c6.275 0.3275 18.74 0.332 25.69 9e-3l5.562-0.2581 0.315 7.044-7.574-0.4247c-7.684-0.4309-20.78-0.3912-22 0.0666-0.4842 0.1811-0.6703 1.825-0.6703 5.922v5.671l1.966 0.3594c1.081 0.1977 6.683 0.2058 12.45 0.0181l10.48-0.3413v6.722l-1.722-0.0298c-0.9469-0.0164-4.463-0.2258-7.814-0.4654s-8.178-0.308-10.73-0.1519l-4.635 0.2837v11.7l1.423 0.3481c0.7828 0.1915 7.577 0.194 15.1 6e-3l13.67-0.3424v6.461h-36.65zm55.39 4.388 0.1542-3.097h14.65c8.06 0 14.85-0.1936 15.1-0.4302 0.6712-0.6505 0.5458-10.52-0.1421-11.19-0.5156-0.5024-11.76-0.636-26.7-0.3171l-2.914 0.0622 0.0866-2.065c0.1317-3.14 0.1487-17.76 0.0239-20.39l-0.1104-2.323 4.768 0.2532c6.196 0.329 18.59 0.3314 25.96 5e-3l5.827-0.2581v6.711l-3.443-0.0775c-20.43-0.4597-26.03-0.3856-26.53 0.3513-0.6111 0.8937-0.4188 10.54 0.2226 11.17 0.6741 0.6575 15.45 0.8239 22.4 0.2523 3.402-0.2798 6.499-0.3912 6.884-0.2474 0.5434 0.2032 0.615 1.198 0.3219 4.473-0.4428 4.947-0.4804 10.35-0.1121 16.07l0.2649 4.117-36.86 0.0254 0.1543-3.097zm55.88 2.992c-0.1381-0.2259-0.0168-3.895 0.2695-8.154 0.4282-6.37 0.3303-16.96-0.3033-32.78l-0.0722-1.807h6.887l-0.2649 6.711c-0.1457 3.691-0.2649 10.31-0.2649 14.71 0 4.401 0.1192 11.02 0.2649 14.71l0.2649 6.711-3.265 0.1525c-1.796 0.0839-3.378-0.0321-3.516-0.2581zm25.97 0c-0.1313-0.2259-0.0127-3.547 0.2638-7.38 0.4794-6.649 0.1969-31.13-0.3843-33.3-0.5334-1.991 0.221-2.235 5.564-1.802 4.21 0.3413 11.31 0.2923 28.53-0.197l2.312-0.0657 0.0718 21.55 0.0717 21.55-6.731-3e-5 0.3738-15.23-23.7-0.2426 0.1954 7.607 0.1955 7.607-3.265 0.1525c-1.796 0.0839-3.372-0.0322-3.503-0.2581zm27.61-20.63 2.829-0.3311-0.1804-7.366c-0.0992-4.051-0.3532-7.534-0.5645-7.739-0.4148-0.4033-22.45-0.6041-22.85-0.2082-0.3292 0.3236-0.7389 13.44-0.4542 14.54 0.1244 0.4808 0.8575 0.9687 1.629 1.084 2.382 0.3566 16.61 0.3744 19.59 0.0247zm-363.6 14.92c-1.986-4.906-6.52-12.68-10.26-17.6-3.855-5.066-4.529-6.87-4.568-12.22-0.0381-5.198 0.9166-5.557 2.746-1.032 2.287 5.657 5.431 11.31 8.616 15.49 5.225 6.855 5.984 8.563 6.25 14.07 0.1944 4.018 0.104 4.775-0.5704 4.775-0.4969 0-1.338-1.324-2.212-3.485zm167.1 0.281c-1.755-4.771-5.503-11.41-9.321-16.51-1.847-2.468-3.731-5.19-4.186-6.048-1.067-2.011-2.145-8.752-1.685-10.54 0.7057-2.74 1.221-2.071 4.89 6.355 1.39 3.193 5.422 9.583 8.578 13.6 3.443 4.377 4.47 7.102 4.55 12.07 0.0528 3.281-0.0873 4.025-0.7833 4.162-0.6159 0.1214-1.174-0.7207-2.043-3.082zm-161.9-3.584c-0.1168-0.1841 0.0436-3.938 0.3565-8.343 0.4038-5.685 0.4051-10.43 5e-3 -16.37-0.3104-4.601-0.434-8.571-0.2746-8.822 0.4682-0.7383 5.851-0.5433 6.515 0.236 0.3245 0.381 0.4752 0.8046 0.335 0.9413-0.4396 0.4284-0.6855 22.14-0.306 27.02 0.1989 2.555 0.2867 4.878 0.1952 5.162-0.1809 0.5613-6.478 0.7287-6.825 0.1815zm167.5-16.68 0.0217-17.06h6.32l-0.0602 3.097c-0.0796 4.094-0.0809 24.54-2e-3 28.08l0.0622 2.78-6.363 0.1654 0.0217-17.06zm-196-10.77c-1.389-0.9899-1.428-4.839-0.0592-5.815 1.342-0.9565 3.473-0.9235 4.938 0.0764 1.431 0.9768 1.639 4.352 0.3449 5.612-1.016 0.9897-3.914 1.06-5.224 0.1262zm166.9-0.259c-1.312-1.413-1.143-4.494 0.3006-5.48 1.463-0.9987 3.596-1.033 4.934-0.0795 1.215 0.8661 1.402 4.371 0.3012 5.663-0.9928 1.166-4.416 1.101-5.536-0.1045z" style="fill:#f60;stroke-width:.5229"/>
   <g transform="matrix(.31 0 0 .31 1040 -501)">
    <g transform="translate(-1440,-281)">
     <path d="m-3814 136.5v-125.4h58.89l0.066 49.16c0.047 34.41 0.3575 48.34 1.063 46.7 3.962-8.03 5.502-10.65 9.077-13.11 8.014-6.227 7.438-6.145 36.64-6.145 25.12 0 26.02 0.09832 32.87 1.885 21.25 6.227 36.64 22.12 39.62 41.79 0.4926 3.195 0.9176 34.41 0.9265 68.83l0.03 63.09h-58.89l-0.5601-131.1-3.188-5.49c-5.313-9.013-15.49-14.75-27.01-14.75s-21.25 5.408-27.01 14.75l-3.188 5.49-0.56 131.1h-58.89zm266.1 124.5c-10.63-2.376-17.38-5.899-26.02-13.11-8.977-7.702-13.51-13.93-15.49-22.94-2.125-7.538-2.125-91.77 0-99.14 2.512-9.013 7.528-16.39 16.39-23.76 8.491-7.046 15.49-10.65 26.02-13.11 8.491-1.885 81.13-1.885 89.77 0.03441 16.39 3.605 32.87 15.57 39.62 28.68 4.439 9.013 4.826 13.11 4.826 58.17 0 46.7-0.2989 49.98-6.564 60.63-6.753 11.47-22.24 22.12-37.64 25.4-8.302 1.803-82.03 1.803-89.77 0zm58.89-26.22c5.79-2.54 11.62-7.538 14.5-13.11 2.026-3.687 2.026-4.588 2.026-47.52v-44.25l-2.701-4.67c-2.989-5.08-8.014-9.832-14.5-12.29-5.988-2.704-18.37-2.704-25.12 0.0598-5.79 2.458-11.62 7.292-14.5 12.29l-2.224 3.851-0.29 42.61c-0.2125 30.32 0.028 44.25 0.8114 45.88 2.512 7.62 9.652 13.93 19.27 17.21 5.7 1.885 17.38 1.147 23.14-1.475zm120.2-98.32v-125.4h58.89v251.5h-58.89zm147 124.5c-19.27-4.752-34.76-18.03-40.52-35.23-1.638-4.506-1.738-8.194-1.738-50.8s0.145-46.7 1.738-50.8c5.015-13.93 16.39-25.4 30.88-31.14 12.51-4.998 14.5-5.162 59.88-4.916 38.63 0.2786 40.52 0.3359 46.38 2.13 16.39 5.162 30.88 17.21 35.75 31.14l2.224 5.49v97.5l-2.224 5.49c-5.7 13.93-19.27 26.22-35.75 31.14-5.889 1.884-6.852 1.884-48.26 2.048-37.64 0.1721-42.5 0.0418-48.26-1.229zm57-24.58c7.14-2.294 14.5-8.194 16.39-13.93 1.926-4.424 2.026-5.981 2.026-47.52 0-40.97-0.075-42.61-2.026-46.7-5.402-12.29-23.14-18.85-37.64-14.75-9.653 3.195-16.39 9.013-19.27 18.03-1.251 4.097-1.45 11.47-1.162 45.88 0.3377 45.06 0.2701 45.06 7.051 51.62 8.491 8.194 21.25 11.47 33.76 7.456zm122.1-99.14v-125.4h58.89v251.5h-58.89zm103.3 37.69v-87.67h58.89v175.3h-58.89zm103.3 0.0434v-87.67h58.89v150.8l19.27-0.2704c17.38-0.254 19.27-0.4179 23.14-2.13 5.889-2.458 10.63-6.637 14.5-11.47l2.602-4.261 0.5313-132.7h58.89v48.34c0 38.51-0.2801 49.98-1.45 54.9-6.852 33.59-35.75 60.63-75.27 69.64-7.14 1.721-9.653 1.803-54.02 2.048l-46.38 0.2786zm259.2 86.03c-20.26-4.67-36.64-18.85-42.5-36.05-1.251-4.343-1.45-11.47-1.251-52.44l0.2801-47.52 2.701-5.735c6.564-13.93 19.27-24.58 35.75-30.32 5.889-1.803 7.051-1.885 46.38-2.13 45.38-0.3195 47.27-0.1311 59.88 4.916 14.5 5.735 25.12 17.21 30.88 31.14 1.45 3.933 1.738 8.194 2.125 34.41l0.3764 29.5h-119.2v14.75c0 18.03 1.162 22.12 8.689 27.86 7.815 6.637 11.62 7.374 35.75 7.374 23.14 0 27.01-0.7538 34.76-6.145 4.826-3.523 9.652-11.47 9.652-16.39v-3.114h29.89l-0.6465 4.752c-2.9 21.3-20.26 38.51-43.4 44.25-8.401 1.885-82.03 1.803-89.77-0.0188zm75.27-112.3c0.3764-18.03-2.026-25.4-10.63-31.95-15.49-10.65-39.62-5.49-46.38 9.832-1.738 3.933-2.026 6.391-2.026 19.66v14.75l59.88-0.4342zm-436.9-100.8v-12.29h58.89v24.58h-58.89z" style="fill:#34c9fe;stroke-width:.8894"/>
     <path transform="translate(1440,281)" d="m-5723 101c-16.12-5.5-28.24-18-31.35-33-0.5448-2.8-0.9694-16-0.9493-28l0.033-23 1.813 5.3c4.136 12 15.12 23 27.24 27 7.17 2.7 19.23 3.6 25.24 2 4.136-1 323.5-151 347.5-164 13.12-6.5 19.43-15.1 23.43-25.1 1.512-4.2 2.404-3.13 2.103 22.1-0.2323 25-0.3635 27-2.524 31-3.535 7.6-8.783 14-15.12 18-5.658 3.9-342.5 164-352.5 167-6.66 2.4-19.23 2.4-26.24 0.072z" style="fill:#f9f9f9;stroke-width:1.001"/>
     <path d="m-4284 336c-14.17-4.72-25.22-14.8-29.24-27.6-2.02-6.33-2.02-9-2.02-165 0-103 0.3637-160 1.005-164 2.422-12.9 11.16-23.8 23.22-28.7 5.558-2.58 8.382-3.18 15.18-3.59 4.844-0.218 10.05 0.127 12.16 0.805 3.738 1.08 343.7 153 355.8 158 15.18 7.68 24.22 25.7 19.2 41.5-4.542 15.8-11.16 20.8-38.39 34.7-88.84 41.7-330.6 155-333.7 156-8.341 2.29-20-0.436-23.22-2.17z" style="fill:#75e5ee;stroke-width:.9995"/>
     <path d="m-4315 302.4-0.2709-141c-0.1806-92 0.081-143 0.7435-147 3.211-17 17.06-30 34.11-33 4.626-0.73 8.338-0.72 12.04 0.039 4.214 0.77 54.28 23 176.6 79 94.42 43 176.6 75.9 180.6 77.9 6.833 3.2 20.07 14 20.07 17 0 0.88-1.344 7.53-4.565 10.6-6.933 6.7 6.462-0.148-199.7 97.9-88.4 42-162.5 74-165.6 75-5.528 1.5-17.17-0.5443-22.79-2.818-6.572-2.12-9.983-3.91-15.15-7.8-6.864-4.55-11.54-12.43-13.85-18.1-0.9884-2.557-1.267-5.186-2.319-7.721z" style="fill:#5edcee;stroke-width:1.002"/>
     <path d="m-4283 477c-16.2-5.4-28.3-17.7-31.3-32.4-0.565-2.94-0.1466-24.89-0.1066-53.39-0.5399-41.33-0.1958-46.2 0.8687-43.97 4.74 14.7 19.93 26.67 37.03 28.57 14.1 2.06 4.44 5.99 187-78.5 91.9-42.2 172-79.5 176-82.4 11.1-5.59 13.8-12.7 21.9-22.3l3.6-6.19 0.965 51c0.966 51-0.323 52-2.52 55.9-3.53 7.46-8.78 13.7-15.1 17.7-5.65 3.83-342 161-352 164-6.66 2.36-19.2 2.36-26.2 0.0707z" style="fill:#26c5fd;stroke-width:.995"/>
     <path d="m-4314 418.3c0.061-20-0.543-23.3 0.678-19.3 4.07 13 14.5 25.9 27.7 29.9 6.41 1.8 18.3 2.1 24.4 0.48 5.09-1.4 349-163 356-167 8.24-5.1 15.3-14 18.3-23 0.448-1.4 0.712 9 0.59 23-0.204 24-0.346 26-2.54 31-3.87 9.5-12.2 17-25.4 24-6.01 3-86.5 41-179 84l-168 79-9.67 0.31c-7.33 0.24-11.2-0.12-15.3-1.5-13.7-7.74-24.8-18.8-27.6-31.2-0.2976-10.19-0.1647-20.8-0.158-29.69z" style="fill:#4e9eed;stroke-width:1.01"/>
    </g>
   </g>
  </g>
 </g>
</svg>
