<svg width="114" height="40" fill="none" xmlns="http://www.w3.org/2000/svg"><path fill-rule="evenodd" clip-rule="evenodd" d="M26.5 10.9c1 0 1.7.8 1.5 1.7a47.4 47.4 0 0 0 .8 24c.3.9-.5 1.8-1.4 1.8H3.2c-1 0-1.8-1-1.5-1.9 2.4-8.5 2.4-14.4.8-23.9C2.4 11.6 3 11 4 11h.1c4.9.5 8 .7 11.2.7 3 0 6.2-.2 11-.7h.2Zm-15 6.8c0 .6-.5 1.1-1.2 1.1a1 1 0 0 1-1-1.1 1 1 0 0 1 1-1.1c.7 0 1.2.5 1.2 1Zm8.6 1.1c.6 0 1.2-.5 1.2-1.1 0-.6-.6-1.1-1.2-1.1a1 1 0 0 0-1 1 1 1 0 0 0 1 1.2ZM9 21.5c0 2 1.5 6 6.2 6 4.8 0 6.3-4 6.3-6 0-.4-.4-.8-.8-.8s-.7.4-.7.8c0 1.5-1.2 4.6-4.8 4.6a4.6 4.6 0 0 1-4.7-4.6c0-.4-.3-.8-.8-.8-.4 0-.7.4-.7.8Z" fill="#0072FF"/><path d="M18.4 6.8a3.1 3.1 0 1 0-1.5-6 3.1 3.1 0 1 0 1.5 6Z" fill="#FFCD00"/><path d="M25.2 10V6.8c.1-1-1-1.7-2-1.1l-5.8 3.8c-.4.2-.7.6-.8 1 2.4 0 5-.2 8.6-.5Z" fill="#00CDC7"/><path d="M5.5 10c3.9.4 6.8.6 9.7.6L13.8 6a1.6 1.6 0 0 0-2-1L6.1 6.5c-.9.2-1.4 1.2-1 2l.3 1.4Z" fill="#FF4646"/><path d="M95 24.7a9 9 0 0 0-8.4-6 4.5 4.5 0 0 0-3.6 1.8c-.9 1-1 2.7-.8 4v.4l.4-.3c.3-.3 1-.7 1.8-.9h1.4c1.1.1 2.1.6 2.9 1.4 1 1 1.4 2.3 1.4 3.8 0 1.6-.5 2.8-1.4 3.8-1 1-2.2 1.4-3.7 1.4a5 5 0 0 1-3.6-1.4c-1.5-1.5-1.3-4.4-1.3-4.4V11l-.2-.2-.6-.1c-.5-.2-1.1-.3-1.8-.3-.9 0-1.6.2-2.1.6-.5.3-.7.9-.7 1.7V28c0 1.6.2 3 .5 4.2.3 1.2.8 2.2 1.4 3 1 1.2 2.1 2.1 3.6 2.8a12.4 12.4 0 0 0 9.2.2 9.3 9.3 0 0 0 5.5-5.2c.5-1.2.7-2.6.7-4.1 0-1.6-.2-3-.7-4.2ZM62.5 10.7l-1.8-.3c-1 0-1.6.2-2.2.6-.4.3-.7.9-.7 1.7v25.7h5.4V11l-.7-.2ZM69.1 16.4a3 3 0 0 0 2.2-.9c.6-.5.9-1.2.9-2a3 3 0 0 0-3-3c-.9 0-1.6.2-2.2.8a3 3 0 0 0-.8 2.1c0 .9.2 1.6.8 2.1a3 3 0 0 0 2.1.9ZM69.3 19.3c-.9 0-1.6.2-2.1.6-.5.3-.7.9-.7 1.8v16.7h5.4V19.8l-.8-.2c-.5-.2-1.1-.3-1.8-.3ZM102.7 10.7c-.5-.2-1.1-.3-1.8-.3-.9 0-1.6.2-2.1.6-.5.3-.7.9-.7 1.7v25.7h5.4V11l-.8-.2ZM109.3 16.4a3 3 0 0 0 2.1-.9c.6-.5.9-1.2.9-2a3 3 0 0 0-3-3c-.9 0-1.6.2-2.2.8a3 3 0 0 0-.8 2.1c0 .9.3 1.6.8 2.1a3 3 0 0 0 2.2.9ZM109.4 19.3c-.9 0-1.6.2-2.1.6-.5.3-.7.9-.7 1.8v16.7h5.4V19.8l-.8-.2c-.5-.2-1.1-.3-1.8-.3ZM54.6 24.7a9 9 0 0 0-8.4-6 4.5 4.5 0 0 0-3.5 1.8c-1 1-1 2.7-.8 4v.4l.4-.3c.3-.3 1-.7 1.8-.9h1.4c1.1.1 2 .6 2.9 1.4.9 1 1.4 2.3 1.4 3.8 0 1.6-.5 2.8-1.5 3.8S46.2 34 44.7 34a5 5 0 0 1-3.6-1.4c-1.5-1.5-1.4-4.4-1.4-4.4V11l-.1-.2-.6-.1c-.5-.2-1.1-.3-1.8-.3-.9 0-1.6.2-2.1.6-.5.3-.7.9-.7 1.7V28c0 1.6.1 3 .5 4.2.3 1.2.8 2.2 1.3 3 1 1.2 2.2 2.1 3.7 2.8a12.4 12.4 0 0 0 9.1.2 9.3 9.3 0 0 0 5.5-5.2c.6-1.2.8-2.6.8-4.1 0-1.6-.2-3-.7-4.2Z" fill="#0072FF"/></svg>