<?xml version="1.0" encoding="utf-8"?>
<!-- Generator: Adobe Illustrator 25.4.1, SVG Export Plug-In . SVG Version: 6.00 Build 0)  -->
<svg version="1.1" id="Logo_VShojo" xmlns="http://www.w3.org/2000/svg" xmlns:xlink="http://www.w3.org/1999/xlink" x="0px" y="0px"
	 viewBox="0 0 748.3 308.6" style="enable-background:new 0 0 748.3 308.6;" xml:space="preserve">
<style type="text/css">
	.st0{fill:#F50F75;}
	.st1{fill:#FFFFFF;}
</style>
<title>VShojo logo</title>
<desc>American virtual Youtuber agency</desc>
<g>
	<path class="st0" d="M729.1,141.3c-5.6-5.8-11.1-11.7-16.8-17.5c-27.1-27.9-80.4-26.9-106.4,1.3c-1.8-1.8-3.5-3.7-5.3-5.6
		c16-4.5,21.5-25.8,9.9-37.5c-2-2.2-4.1-4.3-6.1-6.5c-8.5-9.1-14-17-28.5-16.9c-21.8-0.7-34.4,23-19.6,39.1c2.9,3,5.7,6.1,8.6,9.2
		c-9,4.5-13.6,14.5-12.7,24.3c-28.7-37-91.6-37.4-119.2,1.4c-4.8-5.1-9.6-10.1-14.5-15.1c-10.6-12.8-34.5-17.8-51.4-11.8
		c0.7-14-1.7-19.6-11.6-28.9c-9.4-9.9-17.6-21.4-33.3-17.1c7.1-10.5,11.9-18,0.5-28c-8.7-8.8-17.5-17.6-26.3-26.3
		c-2.6-3.2-6.6-5-10.7-5H223c-4.9,0-9.3,2.5-11.9,6.6l-87.9,142.1L111.1,42.2c-0.8-7.3-7.4-11.2-11.9-16.1
		c-5.2-5.3-10.5-10.6-15.8-15.8C78.8,5.8,74.6-0.2,67.4,0C67.2-0.1,14,0.8,13.8,0.7C9.8,0.8,6,2.5,3.4,5.6c-2.6,3-3.8,7.1-3.3,11
		l34,246.6c0.8,7.3,6.6,11.6,11.3,16.4c6.4,6.5,12.8,12.9,19.3,19.3c4.5,5,9.6,9.8,17,9.6c0,0,72.8,0,72.8,0
		c6.2,0,11.9-3.1,15.2-8.4l36.3-57.4c30.4,20.9,84.9,26.7,111.4,0.6c2.8,3,5.7,6,8.5,8.9c8.4,9.8,25.3,10.2,34.2,0.5
		c4.4-4.5,6.8-10.4,6.8-16.7v-53.5c0-13.1,5.7-19.6,16.6-19.5c0.3-1.5,0.1,56.2,0.2,56.9c0,6.8,2.7,12.9,7.2,17.3
		c9.6,8.8,16.8,22.7,31.6,22.6c14.8,0.1,25.3-13.2,23.7-27.6c19.4,24.4,53,35.1,83.3,25.8c-1.8,11.3,7.5,18,14.2,25.3
		c7.3,8.7,14.2,13.6,26.9,13.3c28.5,0.1,44-17.5,43.9-46.2c0,0,0-17.1,0-17.1c42,52.3,133.5,27.2,133.7-43.2
		C748.4,171.7,741.6,154.4,729.1,141.3z M252.8,201.4c-6.3,0-12.5-1-18.5-3l6.8-10.7c8.4,2.8,20.4,5.4,28.4,8
		C266.2,201,256.3,201.4,252.8,201.4z M304.6,153.3c-8.3-8-19.5-13.1-31.1-16.8l5.4-8.6c7.9,2.4,16.5,10.4,25.6,10V153.3z
		 M480.4,190.1c-1-18.1,16.1-34.5,36.4-26.8c8.4,21.3-8.6,47.2-34.4,37.9C481.1,197.7,480.4,193.9,480.4,190.1z M686.3,174.5
		c1,18.1-16.1,34.5-36.4,26.8c-8.4-21.3,8.6-47.2,34.4-37.9C685.6,166.9,686.3,170.7,686.3,174.5z"/>
	<g>
		<path class="st1" d="M659.8,109.3c-30.7,0-55.2,18.1-64.2,43.3c-0.2,0.4-0.5,0.7-0.9,0.7c-0.5,0-1-0.4-1-1v-23.8
			c0-9.9-8-18.2-17.8-18.2c-0.1,0-0.2,0-0.3,0c-9.7,0.2-17.4,8.1-17.4,17.8v23.7c0,0.6-0.5,1-1,1c-0.4,0-0.8-0.2-0.9-0.7
			c-9-25-33.3-42.8-63.7-42.8c-31.8,0-56.9,20.7-65.1,47.6c-0.3,1.1-2,0.9-2-0.3v-0.7c0-28.8-15.7-46.5-42.5-46.5
			c-18,0-28.5,9.6-36.7,20.1V83.1c0-9.9-8-18.2-17.8-18.2c-0.1,0-0.2,0-0.3,0c-9.7,0.2-17.4,8.1-17.4,17.8V169c0,0.6-0.5,1-1,1
			c-0.4,0-0.7-0.2-0.9-0.6c-6.9-15.7-23.6-23.9-48.3-30.4c-28.3-7.2-35.3-10.8-35.3-21.5V117c0-7.9,7.2-14.3,21-14.3
			c11.2,0,22.4,4,34.4,11c2.7,1.6,5.4,2.5,8.8,2.6c0.1,0,0.2,0,0.3,0c9.2,0,16.7-7.1,16.9-16.3c0.1-7.2-3.9-12.2-7.9-14.6
			c-14.7-9.3-32-14.5-51.9-14.5c-33.4,0-57.3,19.6-57.3,49.3v0.5c0,32.5,21.3,41.6,54.2,50c27.3,7,33,11.7,33,20.8v0.5
			c0,9.6-8.9,15.4-23.6,15.4c-15.9,0-29.5-5.6-41.8-14.7c-2.1-1.5-4.9-2.9-8.9-3.2c-0.4,0-0.9,0-1.3,0c-7.1,0-13.5,4.2-15.9,10.9
			c-2.7,7.6,0.5,15.5,5.8,19.2c18.2,13.1,40,19.6,61.5,19.6c27.4,0,48.5-11,56.5-31.1c0.2-0.4,0.5-0.6,0.9-0.6c0.5,0,1,0.4,1,1v11.6
			c0,9.9,8,18.2,17.8,18.2c0.1,0,0.2,0,0.3,0c9.7-0.2,17.4-8.1,17.4-17.8V167c0-16.8,8.6-25.5,22.2-25.5s21.5,8.6,21.5,25.5v53.1
			c0,9.9,8,18.2,17.8,18.2c0.1,0,0.2,0,0.3,0c9.7-0.2,17.4-8.1,17.4-17.8v-26.1c0-0.6,0.5-1,1-1c0.4,0,0.8,0.2,0.9,0.7
			c8.2,26.5,33.1,45.5,64.7,45.5c30.7,0,55.2-18.1,64.2-43.3c0.2-0.4,0.5-0.7,0.9-0.7c0.5,0,1,0.4,1,1v37.8c0,8.4-3.5,11.7-8.6,11.7
			h-0.2c-7.5,0-13.8,5.6-13.8,14.3c0,9.8,8.4,14.5,19.9,14.5h0.5c23.4,0,37.9-12.6,37.9-40.2v-37.5c0-0.6,0.5-1,1-1
			c0.4,0,0.8,0.2,0.9,0.7c9,25,33.3,42.8,63.7,42.8c39,0,68-29.2,68-65.2V174C727.3,138,698.6,109.3,659.8,109.3z M524.9,174.9
			c0,18.5-12.2,34.1-32.5,34.1c-19.6,0-33-16.1-33-34.6V174c0-18.5,12.2-34.1,32.5-34.1c19.6,0,33,16.1,33,34.6V174.9z M692.3,174.9
			c0,18.5-12.2,34.1-32.5,34.1c-19.6,0-33-16.1-33-34.6V174c0-18.5,12.2-34.1,32.5-34.1c19.6,0,33,16.1,33,34.6V174.9z"/>
		<path class="st1" d="M183.3,120.7v-0.5c0-32.6,26-55.3,63.3-55.3c5.4,0,10.7,0.4,15.9,1.1l30-47.4c3.4-5.3-0.5-12.3-6.8-12.3H223
			c-2.8,0-5.3,1.4-6.8,3.8L97,203L75.3,13.1C74.8,9,71.4,6,67.3,6L13.9,6.7C9.1,6.8,5.4,11,6.1,15.8l34,246.6
			c0.8,5.9,5.9,10.4,11.9,10.4h72.8c4.1,0,7.9-2.1,10.1-5.6l67.3-106.3C190.6,152.7,183.3,140.6,183.3,120.7z"/>
		<path class="st1" d="M575.9,99.3c6.1,0,11.7-2.1,15.4-5.8c3-3,4.5-7,4.5-11.4c0.1-4.5-1.4-8.6-4.5-11.7c-3.6-3.7-9.1-5.8-15.5-5.8
			c-6.3,0-11.7,2.1-15.4,5.8c-3,3.1-4.6,7.1-4.5,11.7c0,4.4,1.5,8.4,4.5,11.4C564.2,97.2,569.8,99.3,575.9,99.3z"/>
	</g>
</g>
</svg>